<svg xmlns="http://www.w3.org/2000/svg" viewBox="0 0 123.29 123.29"><defs><style>.cls-1{fill:#390000;}</style></defs><title>DataEvolution_tabbuttons</title><g id="Screen"><path class="cls-1" d="M20,89.51c.29.47.35.67.48.76.38.26.79.47,1.19.7a51.43,51.43,0,0,0,40.48,4.56c21.1-6,36.31-26.4,36.44-48.6a5.85,5.85,0,0,1,2.3-5.11,74.75,74.75,0,0,0,6.35-6.56l-.4-.41L98,37.21c5.32-5.26,6.41-6.91,6.51-9.38-2.76,1-5.61,2-8.42,3.12a3.46,3.46,0,0,1-3.94-.79,18,18,0,0,0-29.32,9.76c-.59,2.53-.43,5.23-.64,8.1-14.79-1.08-26.91-7.45-36.83-18.9C21,38.48,22.77,46.23,29.64,53.33l-6.92-2c.57,8.9,5.16,14.55,13.08,18.06H29.18c1.3,3.85,3.22,6.91,6.33,8.81A94.26,94.26,0,0,0,45,82.75,36.6,36.6,0,0,1,20,89.51Z"/><path class="cls-1" d="M20,89.51a36.6,36.6,0,0,0,25-6.76,94.26,94.26,0,0,1-9.46-4.5c-3.11-1.9-5-5-6.33-8.81h6.62c-7.92-3.51-12.51-9.16-13.08-18.06l6.92,2c-6.87-7.1-8.65-14.85-4.32-24.21,9.93,11.44,22,17.82,36.83,18.9.21-2.87.05-5.57.64-8.1a18,18,0,0,1,29.32-9.76,3.46,3.46,0,0,0,3.94.79c2.81-1.11,5.66-2.1,8.42-3.12-.1,2.47-1.19,4.12-6.51,9.38l8.89-2.36.4.41a74.75,74.75,0,0,1-6.35,6.56,5.85,5.85,0,0,0-2.3,5.11c-.13,22.2-15.35,42.58-36.44,48.6A51.43,51.43,0,0,1,21.69,91c-.4-.22-.81-.44-1.19-.7C20.37,90.18,20.31,90,20,89.51Z"/></g></svg>