<svg id="BG" xmlns="http://www.w3.org/2000/svg" viewBox="0 0 123.29 123.29"><defs><style>.cls-1{fill:#fff;}</style></defs><title>DataEvolution_wireframe</title><path class="cls-1" d="M11.84,90.94c.33.54.4.76.55.87.43.29.9.54,1.36.79,14.68,8.15,30.18,9.79,46.22,5.21,24.09-6.87,41.46-30.14,41.61-55.49a6.68,6.68,0,0,1,2.63-5.83c2.67-2.19,4.86-5,7.25-7.49l-.46-.47-10.16,2.7c6.08-6,7.32-7.89,7.43-10.71-3.16,1.16-6.41,2.3-9.61,3.56a4,4,0,0,1-4.5-.9A20.55,20.55,0,0,0,60.67,34.32c-.67,2.88-.5,6-.73,9.24C43.05,42.34,29.22,35.06,17.88,22,12.94,32.68,15,41.53,22.82,49.64l-7.9-2.23C15.58,57.57,20.81,64,29.86,68H22.3c1.48,4.4,3.68,7.89,7.23,10.06,3.36,2.05,7.14,3.43,10.8,5.13A41.79,41.79,0,0,1,11.84,90.94Z"/><path class="cls-1" d="M11.84,90.94a41.79,41.79,0,0,0,28.49-7.72c-3.67-1.71-7.44-3.08-10.8-5.13C26,75.92,23.78,72.43,22.3,68h7.56c-9-4-14.28-10.46-14.94-20.62l7.9,2.23c-7.85-8.1-9.88-17-4.94-27.64C29.22,35.06,43.05,42.34,59.94,43.57c.24-3.28.06-6.36.73-9.24A20.55,20.55,0,0,1,94.15,23.19a4,4,0,0,0,4.5.9c3.2-1.26,6.46-2.4,9.61-3.56-.11,2.82-1.35,4.7-7.43,10.71L111,28.53l.46.47c-2.4,2.52-4.59,5.29-7.25,7.49a6.68,6.68,0,0,0-2.63,5.83C101.42,67.68,84.05,90.94,60,97.82c-16,4.58-31.54,2.95-46.22-5.21-.46-.25-.92-.5-1.36-.79C12.23,91.71,12.17,91.48,11.84,90.94Z"/></svg>